<?xml version="1.0" encoding="UTF-8" standalone="no"?><!DOCTYPE svg PUBLIC "-//W3C//DTD SVG 1.1//EN" "http://www.w3.org/Graphics/SVG/1.1/DTD/svg11.dtd"><svg width="100%" height="100%" viewBox="0 0 4271 2259" version="1.1" xmlns="http://www.w3.org/2000/svg" xmlns:xlink="http://www.w3.org/1999/xlink" xml:space="preserve" xmlns:serif="http://www.serif.com/" style="fill-rule:evenodd;clip-rule:evenodd;stroke-linejoin:round;stroke-miterlimit:2;"><g id="Layer1"><path d="M1224.85,213.92l29.462,29.463l-10.784,40.246l-40.247,10.785l-29.462,-29.463l10.784,-40.247l40.247,-10.784Z" style="fill:#49ad47;fill-opacity:0.45;"/><path d="M2275.84,749.842l39.587,12.999l8.536,40.783l-31.051,27.784l-39.587,-12.999l-8.536,-40.783l31.051,-27.784Z" style="fill:#49ad47;fill-opacity:0.45;"/><path d="M3264.46,985.179l29.553,9.704l6.373,30.446l-23.181,20.742l-29.554,-9.704l-6.372,-30.446l23.181,-20.742Z" style="fill:#49ad47;fill-opacity:0.35;"/><path d="M2996.11,323.184l-28.388,12.717l-25.207,-18.226l3.18,-30.943l28.388,-12.717l25.207,18.226l-3.18,30.943Z" style="fill:#49ad47;fill-opacity:0.35;"/><path d="M3641.05,389.052l-8.051,30.046l-30.046,8.051l-21.996,-21.995l8.051,-30.047l30.046,-8.05l21.996,21.995Z" style="fill:#49ad47;fill-opacity:0.25;"/><path d="M2135.42,7.426l-8.051,30.047l-30.047,8.051l-21.995,-21.996l8.051,-30.046l30.046,-8.051l21.996,21.995Z" style="fill:#49ad47;fill-opacity:0;"/><path d="M4275.19,1208.7l-8.051,30.046l-30.046,8.051l-21.995,-21.995l8.051,-30.046l30.046,-8.051l21.995,21.995Z" style="fill:#49ad47;fill-opacity:0;"/><path d="M4050.03,39.238l29.462,29.463l-10.784,40.247l-40.247,10.784l-29.462,-29.463l10.784,-40.247l40.247,-10.784Z" style="fill:#49ad47;fill-opacity:0.65;"/><path d="M3890.7,1639.85l14.879,25.772l-14.879,25.772l-29.76,0l-14.879,-25.772l14.879,-25.772l29.76,0Z" style="fill:#49ad47;fill-opacity:0.55;"/><path d="M2859.92,1474.75l14.88,25.772l-14.88,25.773l-29.76,0l-14.879,-25.773l14.879,-25.772l29.76,0Z" style="fill:#49ad47;fill-opacity:0.35;"/><path d="M2102.83,1508.21l19.511,22.471l-9.705,28.132l-29.216,5.662l-19.511,-22.471l9.705,-28.133l29.216,-5.661Z" style="fill:#49ad47;fill-opacity:0.55;"/><path d="M1668.55,2195.87l21.66,24.946l-10.774,31.23l-32.433,6.285l-21.66,-24.945l10.774,-31.231l32.433,-6.285Z" style="fill:#49ad47;fill-opacity:0.45;"/><path d="M279.765,2027.15l27.03,31.132l-13.445,38.975l-40.476,7.844l-27.031,-31.132l13.445,-38.975l40.477,-7.844Z" style="fill:#49ad47;fill-opacity:0.55;"/><path d="M934.624,853.983l23.558,18.185l-3.97,29.493l-27.526,11.309l-23.558,-18.184l3.969,-29.493l27.527,-11.31Z" style="fill:#49ad47;fill-opacity:0.35;"/><path d="M711.926,555.442l-18.253,23.504l-29.482,-4.055l-11.229,-27.559l18.253,-23.505l29.482,4.055l11.229,27.56Z" style="fill:#49ad47;fill-opacity:0.15;"/><path d="M1464.13,574.482l7.121,36.465l-28.019,24.4l-35.14,-12.065l-7.122,-36.465l28.019,-24.4l35.141,12.065Z" style="fill:#49ad47;fill-opacity:0.25;"/><path d="M437.394,89.142l7.122,36.465l-28.019,24.4l-35.141,-12.065l-7.122,-36.465l28.019,-24.401l35.141,12.066Z" style="fill:#49ad47;fill-opacity:0.35;"/><path d="M45.588,740.891l5.14,26.32l-20.224,17.612l-25.364,-8.708l-5.14,-26.321l20.224,-17.611l25.364,8.708Z" style="fill:#49ad47;fill-opacity:0.25;"/></g></svg>